<?xml version="1.0" standalone="no"?>
<!DOCTYPE svg PUBLIC "-//W3C//DTD SVG 20010904//EN"
 "http://www.w3.org/TR/2001/REC-SVG-20010904/DTD/svg10.dtd">
<svg version="1.0" xmlns="http://www.w3.org/2000/svg"
 width="225.000000pt" height="225.000000pt" viewBox="0 0 225.000000 225.000000"
 preserveAspectRatio="xMidYMid meet">

<g transform="translate(0.000000,225.000000) scale(0.100000,-0.100000)"
fill="#737cf8" stroke="none">
<path d="M937 2225 c-368 -62 -690 -315 -837 -656 -201 -467 -68 -997 330
-1320 95 -78 263 -165 375 -196 162 -45 359 -55 514 -28 538 94 927 559 925
1105 -2 477 -311 900 -769 1055 -157 52 -369 68 -538 40z m9 -582 l18 -38 163
0 162 0 22 38 c24 44 23 44 165 1 136 -40 162 -55 198 -115 129 -217 181 -401
181 -638 l0 -143 -95 -58 c-109 -65 -242 -123 -273 -118 -13 2 -33 23 -54 58
-18 30 -33 58 -33 62 0 4 25 20 55 34 68 34 58 53 -11 24 -74 -32 -219 -60
-314 -60 -95 0 -240 28 -314 60 -78 33 -93 14 -18 -21 71 -34 71 -32 20 -111
-22 -33 -38 -48 -53 -48 -40 0 -195 72 -297 137 l-68 43 0 127 c0 236 61 454
183 650 31 51 46 65 83 79 64 24 226 73 246 73 9 1 24 -15 34 -36z"/>
<path d="M856 1199 c-96 -26 -122 -168 -44 -241 75 -70 198 -5 198 105 0 96
-70 158 -154 136z"/>
<path d="M1345 1202 c-106 -23 -131 -187 -39 -257 26 -20 90 -19 125 2 72 43
81 177 15 232 -19 16 -74 28 -101 23z"/>
</g>
</svg>
